
<svg width="1815px" height="270px" viewBox="0 0 1815 270" version="1.1" xmlns="http://www.w3.org/2000/svg" xmlns:xlink="http://www.w3.org/1999/xlink">
    <!-- Generator: Sketch 43 (38999) - http://www.bohemiancoding.com/sketch -->
    <desc>Created with Sketch.</desc>
    <defs></defs>
    <g id="Page-1" stroke="none" stroke-width="1" fill="none" fill-rule="evenodd">
        <g id="istex-logo" transform="translate(0.000000, -29.000000)">
            <path d="M0,47 L884,47 L884,148.112868 L884,273 L406.699663,273 C406.699663,212.750935 406.689719,152.491308 406.699663,92.242243 C425.950776,92.0099065 445.20189,92.157757 464.453003,92.1683178 C464.860697,78.8934579 464.592216,65.5974766 464.572328,52.3120561 C409.225377,52.3120561 353.868481,52.1430841 298.511586,52.3965421 C298.630911,65.6185981 298.561305,78.851215 298.561305,92.0838318 C317.961575,92.3478505 337.371789,91.8198131 356.772058,92.3372897 C356.712396,152.554673 356.612958,212.782617 356.811834,273 L50.4943982,273 C50.4446794,199.729533 50.3750731,126.459065 50.5242295,53.1885981 C44.0408999,51.9424299 37.3984702,52.7872897 30.8455343,52.5760748 C20.5636895,52.3014953 10.2818448,52.1114019 0,52.3859813 L0,47 Z" id="Shape" fill-rule="nonzero"></path>
            <path d="M155.619798,49.7880374 C178.579933,45.3208411 202.275906,48.2672897 224.709021,54.4242056 C231.510551,56.2723364 238.083375,58.9019626 244.566704,61.7428037 C244.666142,77.6578505 244.606479,93.5728972 244.596535,109.487944 C242.746997,109.519626 240.619033,110.13215 239.047919,108.759252 C220.880675,94.3438318 197.940427,85.7262617 175.119505,88.0390654 C166.597705,88.9261682 157.489224,92.284486 152.278695,99.898785 C146.91901,107.407477 149.066862,119.74243 156.962205,124.294112 C163.694128,128.655701 171.549696,130.208131 179.087064,132.267477 C194.0027,136.037664 209.176873,139.723364 222.929089,147.158131 C234.593116,153.515701 245.143442,163.558972 249.47892,177.023925 C253.903892,190.858505 253.893948,206.150467 250.592621,220.259626 C245.32243,240.93757 229.233431,256.789252 210.847424,264.51972 C201.301417,268.427196 191.248279,270.930093 181.055928,271.838318 C173.419123,272.799346 165.742542,271.225794 158.115681,272.260748 C136.647109,271.827757 115.566344,265.64972 95.9274241,256.651963 C95.7583802,256.271776 95.4302362,255.521963 95.2611924,255.141776 C95.1816423,238.835981 95.072261,222.519626 95.3208549,206.213832 C97.4289314,206.203271 99.8154331,205.728037 101.446209,207.533925 C116.739708,220.777103 135.593071,229.362991 155.172328,231.950374 C164.101822,233.196542 173.210304,232.573458 181.950866,230.324019 C188.533633,228.328037 195.1164,223.98757 197.771384,216.985794 C199.829741,210.765514 199.034241,203.235701 194.569494,198.377757 C187.59892,190.700093 177.317075,188.968131 168.03955,186.349065 C149.11658,181.829065 129.209179,177.171776 113.826187,163.833551 C102.410754,153.969813 96.215793,138.540561 95.4700112,123.13243 C93.9685039,107.660935 97.4488189,91.3551402 106.666682,79.0624299 C118.698628,63.0945794 136.965309,53.5899065 155.619798,49.7880374 Z" id="Shape" fill="#458CA5" fill-rule="nonzero"></path>
            <path d="M0,52.3859813 C10.2818448,52.1114019 20.5636895,52.3014953 30.8455343,52.5760748 C37.3984702,52.7872897 44.0408999,51.9424299 50.5242295,53.1885981 C50.3750731,126.459065 50.4446794,199.729533 50.4943982,273 L0,273 L0,52.3859813 Z" id="Shape" fill="#458CA5" fill-rule="nonzero"></path>
            <path d="M1073.43207,31.7497486 C1098.72535,45.1407556 1124.01863,59.0463647 1149.3119,72.9752852 C1165.43209,81.8443594 1181.77242,90.084276 1197.72138,99.4956481 C1197.35445,143.228088 1197.52568,187.126198 1197.64799,230.927476 L1073.43207,298.531689 L1073.43207,31.7497486 Z" id="Shape-Copy" fill="#458CA5" fill-rule="nonzero"></path>
            <path d="M1135.90384,29.8095846 C1155.30646,43.2005916 1174.70908,57.1062007 1194.11171,71.0351212 C1206.47759,79.9041954 1219.01236,88.1441121 1231.2469,97.5554841 C1230.96543,141.287924 1231.09678,185.186034 1231.1906,228.987312 L1135.90384,296.591525 L1135.90384,185.40923 L1135.90384,29.8095846 Z" id="Shape-Copy-2" fill="#C4D733" fill-rule="nonzero"></path>
            <path d="M298.511586,52.3965421 C353.868481,52.1430841 409.106052,52.3965421 464.453003,52.3965421 C464.472891,65.6819626 464.860697,78.8934579 464.453003,92.1683178 C445.20189,92.157757 425.950776,92.0099065 406.699663,92.242243 C406.689719,152.491308 406.699663,212.750935 406.699663,273 L356.811834,273 C356.612958,212.782617 356.712396,152.554673 356.772058,92.3372897 C337.371789,91.8198131 317.961575,92.3478505 298.561305,92.0838318 C298.561305,78.851215 298.630911,65.6185981 298.511586,52.3965421 Z" id="Shape" fill="#458CA5" fill-rule="nonzero"></path>
            <path d="M505.36162,58.4795327 C504.953926,55.1528972 507.827672,51.9213084 511.009674,52.3754206 C555.468211,52.3331776 599.926749,52.3542991 644.385287,52.3648598 C647.746277,51.7206542 650.79901,55.0684112 650.281935,58.6062617 C650.232216,70.9306542 650.371429,83.2656075 650.222272,95.59 C650.391316,98.811028 647.11982,100.975981 644.355456,100.711963 C617.427762,100.807009 590.510011,100.648598 563.582317,100.785888 C563.48288,111.008692 563.512711,121.231495 563.572373,131.454299 C587.864972,131.707757 612.167514,131.454299 636.470056,131.591589 C639.68189,131.074112 642.535748,134.369065 642.177773,137.706262 C642.257323,149.724393 642.237435,161.753084 642.187717,173.771215 C642.515861,177.140093 639.562565,180.276636 636.390506,179.907009 C612.137683,180.044299 587.874916,179.822523 563.622092,180.002056 C563.433161,194.554766 563.492823,209.107477 563.612148,223.660187 C590.549786,223.966449 617.497368,223.681308 644.435006,223.808037 C647.428076,223.522897 650.679685,226.24757 650.262047,229.616449 C650.291879,242.331589 650.331654,255.06785 650.252103,267.782991 C650.450979,269.504393 649.217953,270.750561 648.054533,271.690467 C644.23613,272.609252 640.298403,272.028411 636.420337,272.123458 C601.617188,272.503645 566.814038,272.038972 532.000945,272.239626 C524.384027,271.848879 516.727334,272.767664 509.130304,271.943925 C506.067627,271.278598 505.063307,267.550654 505.331789,264.657009 C505.371564,195.927664 505.301957,127.208879 505.36162,58.4795327 Z" id="Shape" fill="#458CA5" fill-rule="nonzero"></path>
            <path d="M693.944972,59.9157944 C691.757345,56.7475701 694.342722,51.8685047 698.0418,52.3965421 C716.636625,52.3226168 735.251339,52.3120561 753.846164,52.4071028 C756.441485,52.2275701 758.340742,54.4347664 759.543937,56.6208411 C768.244724,72.5886916 776.865962,88.6199065 785.616468,104.566636 C786.004274,104.049159 786.779888,103.024766 787.167694,102.50729 C795.36135,87.2892523 803.574893,72.0817757 811.818268,56.9059813 C813.160675,54.3925234 815.328414,51.8368224 818.36126,52.3648598 C836.926254,52.3437383 855.501192,52.3014953 874.07613,52.3859813 C876.194151,52.0585981 877.476895,54.0123364 878.878965,55.3218692 C879.326434,59.1237383 876.72117,61.9328972 875.060562,64.953271 C857.0027,95.758972 838.915006,126.543551 820.837255,157.328131 C820.101417,158.405327 820.111361,159.493084 820.847199,160.580841 C841.36117,195.431308 861.924859,230.250093 882.428886,265.111121 C883.065287,266.811402 883.293993,269.356542 881.772598,270.623832 C879.505422,273.190093 875.915726,272.01785 873.022092,272.176262 C859.110776,272.281869 845.19946,272.239626 831.288144,272.102336 C827.648729,272.102336 823.979483,272.493084 820.369899,271.827757 C818.450754,271.363084 817.366884,269.398785 816.382452,267.77243 C806.766839,250.135981 797.051789,232.562897 787.426232,214.926449 C786.958875,214.187196 786.461687,213.479626 785.944612,212.803738 C776.140067,231.04215 766.11676,249.13271 756.262497,267.339439 C755.059303,269.61 753.408639,271.965047 750.7636,272.281869 C732.178718,272.038972 713.593836,272.186822 695.008954,272.250187 C692.413633,272.57757 688.992981,271.004019 689.171969,267.793551 C688.873656,265.449065 690.424882,263.611495 691.459033,261.742243 C711.167559,228.148505 730.866142,194.554766 750.604499,160.971589 C751.171294,159.894393 752.155726,158.500374 751.290619,157.275327 C732.23838,124.779907 712.967379,92.4217757 693.944972,59.9157944 Z" id="Shape" fill="#458CA5" fill-rule="nonzero"></path>
            <path d="M509.368954,56.7158879 C555.010799,56.2195327 600.672531,56.6525234 646.324319,56.4835514 C646.294488,69.7795327 646.523195,83.0860748 646.165219,96.3609346 C617.268661,96.2975701 588.36216,96.1708411 559.475546,96.4348598 C559.296558,109.519626 559.217008,122.625514 559.495433,135.71028 C585.697233,135.868692 611.91892,135.404019 638.110776,135.942617 C637.991451,149.132991 638.160495,162.333925 638.04117,175.524299 C611.849314,175.555981 585.63757,175.323645 559.445714,175.661589 C559.35622,193.086822 559.157345,210.533178 559.535208,227.958411 C588.461597,228.380841 617.407874,227.863364 646.334263,228.201308 C646.324319,241.433925 646.393926,254.666542 646.304432,267.888598 C604.212508,267.994206 562.120585,267.90972 520.028661,267.941402 C516.468796,267.835794 512.889044,268.226542 509.368954,267.624579 C509.488279,197.321682 509.478335,127.018785 509.368954,56.7158879 Z" id="Shape" fill="#C4D733" fill-rule="nonzero"></path>
            <path d="M696.928099,56.5469159 C716.169269,56.5363551 735.430326,56.3568224 754.661552,56.6419626 C765.142272,74.5213084 774.509291,93.2349533 784.731474,111.325514 C785.129224,111.69514 785.934668,112.444953 786.332418,112.814579 C796.2364,94.0164486 806.627627,75.4928972 816.531609,56.6947664 C836.071091,56.3568224 855.640405,56.4413084 875.189831,56.6314019 C855.570799,90.3096262 835.762835,123.850561 816.064252,157.465421 C815.31847,158.44757 815.308526,159.419159 816.044364,160.401308 C837.015748,196.202243 858.285444,231.823645 879.097728,267.719626 C861.189021,268.258224 843.250484,267.751308 825.331834,267.973084 C823.701057,267.719626 821.344387,268.575047 820.459393,266.621308 C811.122205,249.798037 801.944117,232.869159 792.676535,216.003645 C790.290034,212.244019 788.808414,207.797944 785.855118,204.502991 C774.499348,225.592804 762.885039,246.545327 751.47955,267.614019 C749.968099,268.163178 748.337323,267.878037 746.786097,267.962523 C728.837615,267.77243 710.859303,268.215981 692.910821,267.730187 C713.84243,231.33785 735.400495,195.31514 756.461372,159.00729 C756.212778,156.419907 754.164364,154.413364 753.04072,152.163925 C741.307087,132.214673 729.503847,112.318224 717.790101,92.3584112 C710.859303,80.4036449 703.530754,68.7023364 696.928099,56.5469159 Z" id="Shape" fill="#C4D733" fill-rule="nonzero"></path>
            <text id="A" font-family="Arial-BoldMT, Arial" font-size="300" font-weight="bold" fill="#458CA5">
                <tspan x="1240" y="272">A</tspan>
            </text>
            <text id="A" font-family="Arial-BoldMT, Arial" font-size="300" font-weight="bold" fill="#458CA5">
                <tspan x="1599" y="275">A</tspan>
            </text>
            <text id="T" stroke="#458CA5" stroke-width="0.7" fill="#C4D733" font-family="Arial-BoldMT, Arial" font-size="300" font-weight="bold">
                <tspan x="1441" y="275">T</tspan>
            </text>
        </g>
    </g>
</svg>